<?xml version="1.0" encoding="utf-8"?>
<!-- Generator: Adobe Illustrator 24.0.1, SVG Export Plug-In . SVG Version: 6.00 Build 0)  -->
<svg version="1.1" id="Слой_1" xmlns="http://www.w3.org/2000/svg" xmlns:xlink="http://www.w3.org/1999/xlink" x="0px" y="0px"
	 viewBox="0 0 1920 1080" style="enable-background:new 0 0 1920 1080;" xml:space="preserve">
<style type="text/css">
	.st0{fill:#BDD8F5;}
	.st1{fill:#FBDAEB;}
	.st2{fill:#E9D1E9;}
	.st3{fill:#D9C6E4;}
	.st4{fill:#4E5077;}
	.st5{fill:#3E4067;}
</style>
<rect class="st0" width="1920" height="1080"/>
<path class="st1" d="M0,388c0,0,9,1,13,0s9-9,21-11s38-3,40-2s15,11,38,11s24-5,30-4s7,3,15,4s18-5,23-4s12,0,22,6s0,22,10,29
	s19,8,23,12s6,11,10,13s2,0,7,6s22,16,26,16s9,4,25,7s19-13,28-14s23-5,47-12s26-2,34,0s4,5,11,8s9,0,15,3s6,6,10,8s7,2,9,5
	s4,9,9,10s11,11,30,12s69-54,91-50s16,9,21,13s12,1,15,5s2,6,7,9s7,2,9,4s2,5,11,6s10,3,14,3s15,2,22,0s12,3,19,4s17,0,25-2
	s10-4,25-4s21,3,21,3s3,2,11,0s9-6,17-8s17-3,19-2s20-3,23-5s13-2,17-2s15-5,26-11s8-1,33-6s15-2,53-5s46-16,70-23s56,2,57,4
	s15,14,20,16s4,3,5,4s2,10,3,10s5,9,13,11s13,4,16,4s11,11,11,11s11,8,14,8s7,4,9,4s14,6,37-2s19-11,44-20s13-2,28-11s18-5,22-7
	s17-20,29-19s9,1,14,3s5,5,11,4s8,2,8,2s5,6,18,9s10,4,19,6s11,2,15,4s10,5,17,4s7-1,11,0s10,7,19,7s10,1,18-1s22,8,22,8s6,4,14,4
	s6,4,32,3s30,5,40,6s21,4,50-1s31-12,45-12s32-8,33-8s7-7,38,1s29,16,34,17s4,6,24,14s20,12,41,14s29-10,29-10s5-32,8-38s2-12,7-15
	s0,626,0,626H0L0,388z"/>
<path class="st2" d="M0,526c38-2,37-5,48-5s59,8,75,5s31-12,103-18s87,0,87,0s9,8,23,8s19-2,34,0s20,10,27,11s12,1,14,3s13,2,15,3
	s3,3,10,8s12,3,14,4s10,6,15,8s11,3,11,3s6,0,24,9s13,5,18,7s27,15,30,16s5,4,18,5s20,2,44,3s30,0,30,0s6,1,30-6s24-4,30-3s5-4,12-3
	s11,4,13,6s9,4,11,4s14,0,29-9s20-2,20-2s5,5,10,6s16-3,23-3s27,2,67-1s63-5,63-6s13-4,20-4s24,1,38,4s62-8,62-8s12-4,53,0
	s47,9,47,9s5,5,12,6s12,2,15,2s15,5,27,15s49-17,61-17s13,0,20,3s20,4,23,3s11-3,27-12s12-2,23-9s38-4,38-4s17,4,39-1s12-5,23-7
	s28,0,31-2s21-5,36-15s39,3,39,3s28,13,39,10s44,9,44,9s15,6,29,5s28-11,28-11s6-4,27-3s43-7,43-7s34-7,57-16s28-9,44-10s27-1,27-1
	v559H0V526z"/>
<path class="st3" d="M1922,642c0,0-34,10-43,9s-69-19-74-23s-53-14-121-16s-106,0-106,0l-100,1c0,0-36-3-58-7s-31,10-58,12
	s-41-8-59-3s-42,31-51,33s-14,0-20,2s-22,13-33,14s-12,0-22,3s-27,13-33,14s-21,2-41,8s-25,16-36,18s-29-2-35-5s-57-14-61-13
	s-54-12-68-11s-15,6-25,7s-11,2-12,2s-7-2-9-2s-3,0-6,1s-9,4-10,4s-16,2-23,0s-14-9-17-9s-23,5-46-11s-37-14-37-14s-11,2-30,16
	s-53,13-57,13s-37,6-38,8s-32,6-33,6s-16-1-21-3s-13-5-18-4s-16,4-25,5s-39-12-39-12s-11-9-17-7s-5,0-34,12s-52,5-52,5s-22-9-58-7
	s-20,4-51,5s-52-3-52-3s-30-3-40,2s-36,11-45,13s-74,1-87-5S9,679,2,677s0,403,0,403h1920V642z"/>
<path class="st4" d="M1920,729l-59,31l-49,21l-33-6l-27,11l-46-10l-38-21l-32,3l-6-3l4-3l-7-14l-5,14h-6l-5-13l-4,8l-13-3h-20l-27,8
	l-18,4l-16-3l-27,12l-14,1l-16-5l-23,6l-3-6l-2-1l1-2l-4-7l-7,16l-5,1l-6-14l-7,11l-54-8l-54-9l-36-10l-39-15l-22-13l-74,29l-44,12
	l-31,5l-12,4l-16-5l-7-11l-4,15l-10-1l-4-1v-2h5l-3-10l-8-13l-8,21l-3,3l-7-2l-25-10l-29,10h-13l-21,9h-7l-1-4l-2-1l1-2l-6-10l-5,11
	l1,2l-4,7l-9,2l-38,8h-6l-16-12l-24,10l-20,2l-7-1l-4-1l5-1l-1-4l-8-1l6-1l-4-12l-7-11l-7,15l-2,5l3,1l-3,2l-2,6h-6l-3-7l-1-1v-2
	l-5-9l-4,11h1l-1,1l-2,4l-12-1l-30-7l-31,7h-6l-1-3l-3-1h3l-2-5h-1l1-1l-2-4l-2,6h1l-1,1l-1,4h3l-4,2l3,1h-3l3,1h-3l2,1h-7l-23,6
	l-13,1l-30-4l-6-6l-18,1l5-2c0,0,0-2-1-2s-8-1-8-1l6-2l-1-5l-4-8l-4-11l-10,18l4,2l-6,3l5,1l-5,4l-7,2l-2-3l4-1l-2-3l-2-5l-4-10
	l-7,10l2,3l-4,5l-3,4h-8l-31-13l-21-1l-17,6l-25,3l-26-5l-34,2l-16,8l-11-6l-6-2v-1h5l-1-6l-7-15l-6,9h2l-3,8v3l-7,1l-10-3
	c0,0-19-6-22-8s-26-6-26-6l-1-5l-5-11l-3,8l-2,6h-5l-29-7l-33-1l-10,7l-29-6l-29-3l-22,3L0,743l0,337h1920V729z"/>
<path class="st5" d="M0,744l20,6l1-5l-21-8v-6l22-20l-15-1l14-5l-9-2l13-5l-10-3l16-30h12l-10-5l16-34l33,71l-11,6l14,1l12,26
	l-31,12l1,3l36-7l10-22l10-3l-10-1l15-27l26,57h-8l10,4l10,21l-24,12l28-4l-20,10l23-4l6,10l-17,3l19,2l9,2l15,1l-19-9l8-10l9-2
	l-9-4l11-4l-9-2l11-3l-11-3l14-18l8-3h-7l11-22l21,46l-10,2l14,3l7,18l-22,8l25-3l-5,5h9l3,8l-18,4h19l4,8l42,5l-9-7l4-11l20,8v-5
	l-18-8l3-10l12-2l3-7h-12l4-2l10-3h-10l4-4l8-2h-9l6-6l7-18l8-2l-8-2l14-28l26,57h-7l10,6l4,10l9,2l3-3l-1-9h-8l11-8h-8l11-6l-8-1
	l14-30l12-3h-11l17-35l19,38l-6,1l8,3l12,28l-10,6h13l13,27l-30,14l34-5l3,4l-26,7l27-3l6,10l-25,10l31-3l3-9l12-2l4-10l-11,1l2-5
	l12-3l-11-1l2-4l10-3l-8-1l15-28l10-5h-10l17-36l21,44h-9l9,3l13,25l-9,7l13-1l12,29l-32,13l38-5l2,5l-27,6l28-3l1,6l10,2l-1-5h-6
	l2-3l7-3l-6,1l11-24l7-4h-6l13-28l26,58h-7l2,3l8,3l9,21l-16,6l20,1l-8,6l9-1l14,9l35,10l55,19l4-2l1-5h9v-6l-6-1l1-3l6-1l-6-1l3-3
	l5-1l-5-1l2-4l3-4l4-11l7-2l-6-1l10-23l23,46l-6,3l9,2l6,18l-11,6h16l-11,6l14-2v5l8-2v-5h3v-3h-6l5-3h-4l7-16l5-1l-4-1l8-18l4,10
	h-3l6,2l10,25l-4,2l6,2l4,13l-12,6l17-2l4,8l-7,4l9,2l6,4l8-1v-2h-7l4-5l6-2v-3l-6,1l16-30l14,32l-5,6l12,5l-5,3l7,5l1,3l28-7l30-2
	l2-8l5-3l-6-1l15-28l12,22l-1,2h2l3,8l17-3l17-2l5-7l6-2l-5-4l3-6l12,3l-11-4l4-9l7-1l2-4h-9l6-8l3-1l-2-1l6-13l4-1v-1h-3l1-6l7-12
	l16,34l-3,3l6,3l2,5h3l2-6l10-1v-7l-9,1l4-7l6-1l-5-1l9-20l6-2l-4-2l10-23l14,32l8,15l-7,3l10,1l6,18l-19,10l19-4l-7,6l7-1h9v-4h-5
	l6-10l3-12l1-1l-1-1l6-13l11,26l-1,1l4,3l2,9l-6,2v3l9,1l2,5l37-9l24-9l24-5l7-20l10-3h-10l7-16l21,8v-4l-21-9l2-7l15-5l3-6l-3-2
	l-6,1l9-5l-8-1l10-6l-8-2l14-23l8-2l-6-1l13-30l15,37l-3,2l5,4l7,17l-6,5l13-2l4-10l22,8v-4l-22-8l7-15c0,0,13,1,13,0s1-11,0-11
	s-12,0-12,0l8-5l6-1l-6-1l9-5l-7-2l15-28l8-4l-8-1l15-34l20,46l13,23l-10,6h12l7,14l8-4l1-5h-10l6-4h7v-2h-6l6-18l4-2h-4l4-5l7-2
	l-7-1l15-27l14,34l-2,4c0,0,5-2,5-1s9,21,9,21l-8,3l9,1l1,2h6l8-4l-5-1l10-23l6-2l-5-1l8-18l12,29l4,2h3l2-5h17l74-33h14l9-8h14l2-4
	h12l5-2h7v-4l-10-3l4-8l15,5l3-2l-17-7l6-10l10-1l-8-4l3-6l6,1v-5h-5l11-23l8-1l-6-2l11-23l21,46l-7,4l10,2l3,7h-6l10,8l1,5l-17,5
	l5,1l12-2l3,2l-13,5l15-2l3,7l-17,6h28l16,5l21-10l19-5l14-18v363H0V744z"/>
</svg>
